<?xml version="1.0" standalone="no"?>
<!DOCTYPE svg PUBLIC "-//W3C//DTD SVG 20010904//EN"
 "http://www.w3.org/TR/2001/REC-SVG-20010904/DTD/svg10.dtd">
<svg version="1.0" xmlns="http://www.w3.org/2000/svg"
 width="512.000000pt" height="512.000000pt" viewBox="0 0 512.000000 512.000000"
 preserveAspectRatio="xMidYMid meet">

<g transform="translate(0.000000,512.000000) scale(0.100000,-0.100000)"
fill="#000000" stroke="none">
<path d="M574 5029 c-269 -35 -499 -247 -558 -516 -14 -64 -16 -225 -16 -1435
0 -1517 -3 -1437 69 -1583 69 -139 170 -239 306 -305 140 -68 165 -70 785 -70
l550 0 0 -184 0 -185 -222 -3 c-219 -3 -224 -3 -273 -30 -64 -33 -120 -89
-153 -153 -23 -44 -27 -62 -27 -145 0 -114 22 -168 97 -242 79 -77 131 -92
326 -92 160 -1 164 -1 183 23 22 28 25 69 5 97 -13 17 -31 20 -173 24 -148 5
-161 7 -203 32 -102 59 -122 196 -42 282 56 59 -18 56 1332 56 1350 0 1276 3
1332 -56 80 -86 59 -225 -44 -284 l-43 -25 -977 -3 -977 -2 -20 -27 c-27 -34
-26 -56 3 -90 l24 -28 944 -3 c981 -3 1031 -1 1110 39 55 28 119 95 149 154
20 43 24 64 24 145 0 83 -4 101 -27 145 -33 64 -89 120 -153 153 -49 27 -54
27 -272 30 l-223 3 0 185 0 184 550 0 c621 0 645 2 785 70 139 67 236 164 306
305 72 146 69 66 69 1578 0 1193 -2 1367 -16 1435 -55 274 -285 485 -566 522
-89 11 -3876 11 -3964 -1z m4037 -166 c84 -29 173 -87 228 -149 53 -59 107
-169 121 -245 7 -37 10 -516 8 -1425 l-3 -1369 -23 -59 c-64 -168 -202 -290
-374 -331 -95 -22 -3921 -22 -4016 0 -171 41 -311 164 -374 331 l-23 59 -3
1369 c-2 909 1 1388 8 1425 39 211 216 379 434 411 28 4 929 7 2001 6 l1950
-1 66 -22z m-1351 -3928 l0 -185 -700 0 -700 0 0 185 0 185 700 0 700 0 0
-185z"/>
<path d="M600 4626 c-91 -24 -158 -87 -188 -175 -9 -25 -12 -384 -12 -1371 0
-1512 -6 -1395 80 -1481 86 -86 -94 -79 2080 -79 2174 0 1994 -7 2080 79 86
86 80 1 80 1223 l0 1079 -25 24 c-31 32 -69 32 -100 0 l-25 -24 0 -1071 c0
-1188 4 -1117 -65 -1146 -51 -21 -3839 -21 -3890 0 -70 29 -65 -69 -65 1396 0
1217 1 1324 17 1350 34 59 -97 55 2000 55 l1935 0 34 -37 34 -38 0 -130 c0
-126 1 -132 25 -155 13 -14 36 -25 50 -25 14 0 37 11 50 25 24 23 25 30 25
150 0 69 -5 145 -11 168 -17 68 -69 131 -136 163 l-58 29 -1935 2 c-1508 1
-1945 -1 -1980 -11z"/>
<path d="M1033 4410 c-38 -16 -43 -41 -43 -238 0 -176 1 -191 21 -216 15 -19
30 -26 54 -26 24 0 39 7 54 26 20 25 21 40 21 219 0 169 -2 195 -17 213 -21
25 -60 35 -90 22z"/>
<path d="M3677 4396 c-128 -48 -215 -174 -205 -299 l3 -42 -77 -40 -77 -40
-28 27 c-76 73 -208 93 -311 48 -59 -26 -134 -101 -154 -156 l-12 -34 -138 0
c-107 0 -138 3 -138 13 0 26 -63 98 -108 125 -40 23 -58 27 -122 27 -64 0 -82
-4 -123 -28 -59 -35 -101 -92 -117 -158 -15 -63 -7 -119 27 -181 l26 -48 -64
-110 -64 -111 -85 -2 c-64 -2 -95 -8 -126 -24 -51 -27 -129 -112 -144 -158
l-12 -35 -137 0 -138 0 -31 49 c-97 157 -310 168 -413 22 -139 -196 51 -452
279 -377 56 19 122 77 142 126 l12 30 142 0 142 0 21 -44 c32 -66 78 -112 141
-143 48 -23 69 -28 132 -27 l76 1 63 -110 63 -110 -27 -53 c-32 -63 -41 -125
-27 -177 l10 -37 -69 -56 -69 -57 -43 17 c-52 20 -146 21 -191 2 -116 -48
-178 -177 -142 -297 69 -238 403 -238 472 0 15 49 14 103 -1 144 -4 9 19 34
65 71 l71 58 42 -17 c54 -22 141 -22 192 -1 49 21 101 69 126 119 l19 37 133
0 132 0 18 -43 c25 -62 67 -108 128 -142 48 -27 63 -30 139 -30 76 0 91 3 139
30 102 57 151 142 151 264 0 70 -24 137 -62 178 l-21 22 69 120 68 119 52 -5
c143 -15 268 98 268 242 0 74 -29 140 -81 186 -53 46 -98 62 -174 61 l-67 -1
-66 115 -66 115 28 42 c39 56 54 105 53 175 l0 58 75 37 74 37 46 -35 c149
-114 354 -67 442 100 22 42 27 63 27 130 0 67 -5 88 -27 130 -52 98 -140 156
-248 162 -40 2 -79 -2 -103 -11z m147 -150 c96 -40 114 -178 31 -242 -98 -75
-230 -11 -230 111 0 107 100 172 199 131z m-682 -326 c20 -6 50 -26 67 -46 59
-66 35 -181 -46 -219 -59 -28 -119 -16 -165 34 -33 34 -38 47 -38 86 0 72 37
127 96 145 39 11 44 11 86 0z m-788 -51 c32 -15 60 -72 51 -106 -16 -67 -103
-96 -158 -53 -89 70 3 206 107 159z m479 -202 c25 -62 67 -109 128 -142 47
-26 65 -30 137 -31 l84 -2 69 -120 70 -120 -23 -44 c-32 -61 -32 -166 0 -224
l24 -40 -70 -120 -70 -119 -74 -1 c-96 -1 -163 -30 -223 -96 -24 -27 -50 -65
-57 -84 l-12 -34 -138 0 c-107 0 -138 3 -138 13 0 25 -62 98 -106 123 -31 18
-66 28 -114 33 l-70 6 -63 110 -64 110 33 48 c38 54 59 141 50 201 -8 50 -41
124 -66 151 -19 20 -19 22 48 137 l67 116 55 0 c31 0 72 7 91 15 49 20 106 73
130 119 l19 38 133 0 132 0 18 -43z m-853 -442 c91 -47 104 -164 25 -234 -45
-39 -89 -47 -143 -26 -53 22 -84 64 -89 124 -9 107 110 186 207 136z m-834
-40 c66 -27 78 -113 22 -160 -64 -54 -158 -7 -158 79 0 30 43 83 73 89 12 2
23 5 25 6 1 0 18 -6 38 -14z m2410 0 c40 -16 68 -70 58 -110 -8 -32 -59 -75
-89 -75 -58 0 -105 47 -105 104 0 30 43 83 73 89 12 2 23 5 25 6 1 0 18 -6 38
-14z m-378 -651 c88 -57 80 -204 -15 -249 -95 -45 -203 21 -203 125 0 117 122
186 218 124z m-824 -35 c23 -11 56 -62 56 -89 0 -28 -34 -73 -65 -86 -79 -33
-158 47 -125 127 21 50 81 72 134 48z m-498 -424 c28 -19 48 -69 40 -101 -16
-62 -101 -96 -152 -59 -76 52 -38 175 53 175 21 0 48 -7 59 -15z"/>
<path d="M813 4290 c-36 -15 -43 -43 -43 -180 0 -126 1 -132 25 -155 33 -34
77 -33 104 1 19 24 21 40 21 159 0 112 -3 136 -17 153 -21 25 -60 35 -90 22z"/>
<path d="M1253 4276 c-26 -23 -28 -28 -31 -130 -5 -124 2 -170 29 -197 25 -25
74 -24 99 1 18 18 20 33 20 164 0 144 0 145 -26 165 -35 27 -57 26 -91 -3z"/>
<path d="M1472 4187 c-19 -21 -22 -35 -22 -118 0 -87 2 -97 23 -117 31 -29 72
-28 102 3 23 22 25 32 25 115 0 83 -2 93 -25 115 -31 32 -74 33 -103 2z"/>
<path d="M3712 2283 c-12 -10 -24 -30 -28 -45 -5 -22 0 -33 24 -58 l30 -30
332 0 331 0 24 25 c32 31 33 74 2 103 -23 22 -28 22 -359 22 -305 0 -338 -2
-356 -17z"/>
<path d="M3246 2009 c-36 -28 -36 -80 0 -108 26 -21 35 -21 589 -21 554 0 563
0 589 21 36 28 36 80 0 108 -26 21 -35 21 -589 21 -554 0 -563 0 -589 -21z"/>
</g>
</svg>
