<?xml version="1.0" encoding="utf-8"?>
<!-- Generator: Adobe Illustrator 14.0.0, SVG Export Plug-In . SVG Version: 6.00 Build 43363)  -->
<!DOCTYPE svg PUBLIC "-//W3C//DTD SVG 1.1//EN" "http://www.w3.org/Graphics/SVG/1.1/DTD/svg11.dtd">
<svg version="1.1" id="图层_1" xmlns="http://www.w3.org/2000/svg" xmlns:xlink="http://www.w3.org/1999/xlink" x="0px" y="0px"
	 width="18.334px" height="8.521px" viewBox="-1.063 3.896 18.334 8.521" enable-background="new -1.063 3.896 18.334 8.521"
	 xml:space="preserve">
<path fill="#67C1C4" d="M3.191,4.192l10.002,0c2.209,0,4,1.791,4,4c0,2.208-1.791,3.999-4,4H3.194
	c-2.209,0.001-4.001-1.789-4.002-3.998C-0.809,5.984,0.981,4.192,3.191,4.192L3.191,4.192z M9.1,11.191l4.092,0.001
	c1.656,0.013,3.011-1.319,3.023-2.977c0.014-1.657-1.319-3.011-2.976-3.024c-0.017,0-0.033,0-0.049,0l-4.092,0L9.1,11.191z"/>
</svg>
