<?xml version="1.0" standalone="no"?>
<!DOCTYPE svg PUBLIC "-//W3C//DTD SVG 20010904//EN"
 "http://www.w3.org/TR/2001/REC-SVG-20010904/DTD/svg10.dtd">
<svg version="1.0" xmlns="http://www.w3.org/2000/svg"
 width="225.000000pt" height="225.000000pt" viewBox="0 0 225.000000 225.000000"
 preserveAspectRatio="xMidYMid meet">

<g transform="translate(0.000000,225.000000) scale(0.100000,-0.100000)"
fill="#000000" stroke="none">
<path d="M1596 1725 c-146 -201 -262 -365 -258 -365 4 0 91 21 194 46 l187 46
175 234 176 233 -46 32 c-25 17 -49 27 -54 23 -4 -5 -76 -101 -159 -214 -136
-183 -177 -227 -202 -218 -4 2 71 110 167 242 96 131 174 242 174 246 0 8 -72
60 -82 60 -3 0 -126 -164 -272 -365z"/>
<path d="M980 2069 c-92 -14 -245 -68 -337 -120 -109 -61 -281 -234 -342 -343
-142 -252 -168 -535 -73 -803 183 -518 772 -770 1281 -550 102 44 181 97 274
186 268 255 362 635 246 986 -41 125 -38 121 -90 95 -24 -13 -45 -24 -47 -25
-1 -1 11 -43 28 -92 58 -175 63 -341 14 -511 -129 -447 -595 -705 -1039 -577
-169 49 -313 142 -421 273 -65 78 -145 238 -169 335 -106 441 150 880 590
1013 78 23 108 27 225 28 145 0 207 -11 324 -60 92 -39 89 -39 114 5 12 22 22
44 22 50 0 13 -137 68 -228 92 -91 23 -277 32 -372 18z"/>
<path d="M664 1596 c-59 -19 -98 -52 -129 -108 -24 -43 -27 -58 -23 -118 5
-90 39 -143 117 -182 73 -37 131 -37 202 0 78 41 112 94 117 181 3 50 0 77
-13 102 -29 58 -85 108 -139 124 -59 18 -78 18 -132 1z m110 -110 c45 -19 66
-52 66 -102 0 -104 -128 -152 -194 -73 -49 58 -30 145 38 175 40 17 49 17 90
0z"/>
<path d="M1391 1226 c-87 -29 -151 -118 -151 -211 0 -218 285 -304 406 -123
55 82 51 182 -11 264 -51 67 -157 98 -244 70z m130 -119 c70 -47 69 -143 -3
-187 -39 -24 -69 -25 -108 -5 -79 41 -77 166 3 200 45 20 69 18 108 -8z"/>
<path d="M699 927 c-105 -70 -108 -206 -6 -281 22 -16 43 -21 91 -21 54 0 68
4 100 29 126 96 59 296 -99 296 -38 0 -61 -6 -86 -23z m125 -103 c50 -49 -24
-124 -76 -77 -20 18 -23 45 -8 74 13 23 62 26 84 3z"/>
</g>
</svg>
