<?xml version="1.0" standalone="no"?>
<!DOCTYPE svg PUBLIC "-//W3C//DTD SVG 20010904//EN"
 "http://www.w3.org/TR/2001/REC-SVG-20010904/DTD/svg10.dtd">
<svg version="1.0" xmlns="http://www.w3.org/2000/svg"
 width="200.000000pt" height="200.000000pt" viewBox="0 0 200.000000 200.000000"
 preserveAspectRatio="xMidYMid meet">

<g transform="translate(0.000000,200.000000) scale(0.100000,-0.100000)"
fill="#000000" stroke="none">
<path d="M486 1956 c-82 -31 -140 -116 -140 -206 1 -62 21 -109 67 -157 l31
-33 -44 0 c-55 0 -122 -32 -158 -76 -33 -40 -205 -464 -205 -506 0 -59 43
-101 103 -101 52 0 82 32 127 139 l43 99 0 -185 c0 -117 -9 -286 -25 -460 -32
-352 -32 -361 1 -399 50 -60 148 -48 179 21 8 18 30 157 50 308 20 151 40 286
44 299 4 15 20 -77 45 -260 21 -156 42 -300 47 -320 26 -102 158 -119 203 -26
15 32 14 50 -4 258 -29 329 -36 311 72 175 l91 -116 89 0 88 0 0 30 0 30 -72
0 -73 0 -196 249 c-140 177 -194 253 -188 262 5 8 9 31 9 52 0 56 -52 107
-108 107 -82 0 -134 -82 -98 -157 18 -39 74 -68 115 -60 23 5 35 -6 100 -90
l74 -95 23 -261 c30 -335 30 -363 3 -377 -16 -9 -26 -8 -45 5 -13 8 -24 18
-24 21 0 32 -83 615 -90 632 -8 19 -17 22 -60 22 -31 0 -52 -5 -55 -12 -3 -7
-24 -157 -48 -332 -37 -268 -47 -321 -62 -332 -24 -18 -28 -18 -55 4 l-22 18
31 354 c23 262 31 412 31 573 0 224 -5 257 -39 257 -14 0 -29 -25 -62 -102
-23 -57 -57 -136 -74 -177 -34 -82 -55 -102 -82 -85 -10 6 -19 19 -21 28 -5
24 165 446 191 475 42 45 73 51 272 51 164 0 190 -2 224 -19 21 -11 45 -30 53
-43 8 -13 54 -121 101 -241 72 -179 85 -221 76 -238 -7 -14 -18 -19 -37 -17
-24 3 -33 19 -102 183 -69 165 -77 180 -100 180 l-25 0 -3 -197 -2 -198 29 0
30 0 3 103 3 102 44 -103 c47 -112 70 -136 127 -136 46 0 87 33 98 77 9 34 1
58 -84 272 -100 251 -119 282 -195 316 -22 10 -59 19 -83 19 l-43 0 35 34
c132 133 48 361 -138 373 -28 2 -68 -3 -90 -11z m157 -72 c61 -32 90 -118 62
-189 -60 -159 -295 -115 -295 55 0 122 121 191 233 134z m-49 -823 c33 -37 -5
-88 -51 -70 -43 16 -24 87 23 89 6 0 19 -9 28 -19z"/>
<path d="M1264 1915 c-32 -35 -34 -35 -116 -35 -52 0 -91 -5 -101 -12 -9 -7
-50 -60 -91 -118 l-75 -105 22 -17 c12 -10 24 -18 27 -18 3 0 37 45 75 100
l70 100 81 0 c77 0 83 -2 99 -26 9 -14 32 -32 52 -40 106 -45 194 93 112 175
-25 26 -39 31 -76 31 -39 0 -50 -5 -79 -35z m114 -37 c7 -7 12 -21 12 -33 0
-12 -5 -26 -12 -33 -7 -7 -21 -12 -33 -12 -12 0 -26 5 -33 12 -7 7 -12 21 -12
33 0 12 5 26 12 33 7 7 21 12 33 12 12 0 26 -5 33 -12z"/>
<path d="M1792 1928 c-17 -17 -17 -549 0 -566 16 -16 150 -16 166 0 17 17 17
549 0 566 -7 7 -41 12 -83 12 -42 0 -76 -5 -83 -12z m116 -285 l-3 -228 -30 0
-30 0 -3 228 -2 227 35 0 35 0 -2 -227z"/>
<path d="M1537 1764 c-13 -13 -8 -389 5 -402 17 -17 152 -16 167 2 8 9 11 73
9 207 l-3 194 -85 3 c-47 1 -89 0 -93 -4z m121 -201 l-3 -148 -30 0 -30 0 -3
148 -3 147 36 0 36 0 -3 -147z"/>
<path d="M1292 1598 c-16 -16 -16 -220 0 -236 16 -16 150 -16 166 0 8 8 12 49
12 118 0 69 -4 110 -12 118 -7 7 -41 12 -83 12 -42 0 -76 -5 -83 -12z m113
-118 l0 -65 -30 0 c-29 0 -30 1 -33 54 -4 70 2 83 35 79 27 -3 28 -4 28 -68z"/>
<path d="M1280 1250 l0 -30 345 0 345 0 0 30 0 30 -345 0 -345 0 0 -30z"/>
<path d="M1405 596 c-42 -19 -60 -42 -161 -206 -84 -137 -89 -148 -89 -202 0
-70 22 -103 88 -136 82 -42 157 -12 214 86 l27 45 15 -24 c54 -86 157 -138
249 -125 147 20 246 164 212 306 -17 69 -64 128 -130 163 -48 25 -63 28 -120
24 -36 -2 -72 -7 -82 -11 -11 -5 -18 -1 -23 13 -19 59 -134 98 -200 67z m133
-81 c32 -38 28 -80 -14 -150 -20 -33 -37 -61 -39 -63 -5 -5 -155 91 -155 99 0
16 70 118 92 134 32 22 87 13 116 -20z m202 -57 c0 -17 -101 -321 -110 -331
-8 -9 -56 27 -71 55 -30 57 -29 72 17 149 24 40 44 81 44 92 0 11 13 23 33 32
40 18 87 19 87 3z m118 -54 c97 -117 37 -276 -115 -309 -18 -3 -37 -4 -42 -1
-13 8 100 346 116 346 6 0 25 -16 41 -36z m-441 -139 l32 -21 -39 -65 c-36
-61 -70 -89 -106 -89 -30 0 -71 30 -84 59 -16 39 -8 68 36 137 l35 55 47 -27
c26 -15 61 -37 79 -49z"/>
</g>
</svg>
