<?xml version="1.0" standalone="no"?>
<!DOCTYPE svg PUBLIC "-//W3C//DTD SVG 20010904//EN"
 "http://www.w3.org/TR/2001/REC-SVG-20010904/DTD/svg10.dtd">
<svg version="1.0" xmlns="http://www.w3.org/2000/svg"
 width="2560.000000pt" height="1057.000000pt" viewBox="0 0 2560.000000 1057.000000"
 preserveAspectRatio="xMidYMid meet">

<g transform="translate(0.000000,1057.000000) scale(0.100000,-0.100000)"
fill="#000000" stroke="none">
<path d="M160 5280 l0 -5140 580 0 580 0 0 4540 0 4540 4718 0 c3111 0 4754
-3 4827 -10 439 -41 936 -192 1414 -431 441 -220 788 -466 1106 -784 698 -698
1055 -1592 1055 -2645 0 -1183 -443 -2199 -1277 -2930 -641 -562 -1516 -950
-2322 -1030 -65 -6 -636 -10 -1552 -10 l-1449 0 0 2440 0 2440 -600 0 -600 0
0 -3060 0 -3060 2003 0 c1281 0 2051 4 2138 10 422 33 790 106 1174 235 715
239 1354 641 1954 1230 452 443 829 921 1203 1525 439 709 1361 2279 2895
4930 576 995 1320 2286 1342 2328 l12 22 -655 0 -655 0 -1253 -2005 c-689
-1103 -1256 -2005 -1260 -2005 -5 0 -8 9 -8 19 0 35 -70 291 -124 456 -195
590 -496 1159 -861 1629 -815 1049 -1940 1673 -3335 1850 -413 53 -42 50
-5762 53 l-5288 3 0 -5140z"/>
<path d="M19370 10411 c0 -4 1206 -2037 2680 -4517 l2680 -4509 -3545 -3
-3545 -2 0 -620 0 -620 3173 0 3172 0 749 1237 c412 680 749 1241 749 1247 0
6 -1081 1763 -2403 3904 l-2402 3892 -654 0 c-360 0 -654 -4 -654 -9z"/>
<path d="M16613 4681 c-1509 -2490 -2743 -4531 -2743 -4534 0 -4 377 -7 838
-7 l837 1 1904 3340 c1047 1836 1907 3341 1911 3344 3 2 527 -843 1162 -1878
l1155 -1882 -2018 -3 -2019 -2 0 -600 0 -600 3120 0 c2617 0 3120 2 3113 13
-102 172 -4509 7337 -4513 7337 -3 -1 -1239 -2039 -2747 -4529z"/>
<path d="M1720 6900 l0 -1880 2240 0 2240 0 0 620 0 620 -1640 0 -1640 0 0
655 0 655 3835 0 c2609 0 3867 -3 3933 -10 433 -47 853 -215 1211 -482 120
-91 319 -283 416 -403 334 -413 502 -912 482 -1435 -9 -237 -53 -463 -132
-677 -267 -720 -928 -1310 -1654 -1475 -93 -21 -120 -22 -783 -25 l-688 -4 0
1601 0 1600 -617 -2 -618 -3 -3 -2197 -2 -2198 1289 0 c803 0 1328 4 1392 10
1005 99 1976 714 2531 1603 95 152 234 434 292 592 92 249 155 510 193 790 24
186 24 655 0 855 -89 721 -356 1341 -797 1855 -103 119 -344 354 -448 435
-482 376 -1028 620 -1608 719 -345 59 45 55 -4901 58 l-4523 3 0 -1880z"/>
<path d="M1720 2320 l0 -2180 600 0 600 0 0 1580 0 1580 1640 0 1640 0 0 600
0 600 -2240 0 -2240 0 0 -2180z"/>
</g>
</svg>
