<?xml version="1.0" standalone="no"?>
<!DOCTYPE svg PUBLIC "-//W3C//DTD SVG 20010904//EN"
 "http://www.w3.org/TR/2001/REC-SVG-20010904/DTD/svg10.dtd">
<svg version="1.0" xmlns="http://www.w3.org/2000/svg"
 width="608.000000pt" height="608.000000pt" viewBox="0 0 608.000000 608.000000"
 preserveAspectRatio="xMidYMid meet">

<g transform="translate(0.000000,608.000000) scale(0.100000,-0.100000)"
fill="#000000" stroke="none">
<path d="M2876 4481 c-14 -22 -17 -101 -6 -135 13 -41 31 -46 53 -13 l16 22
31 -32 c37 -39 68 -42 100 -8 28 29 46 31 73 8 18 -17 19 -17 32 0 7 10 16 42
20 72 12 97 -26 122 -92 60 -27 -25 -46 -35 -70 -35 -24 0 -44 10 -72 35 -37
34 -74 45 -85 26z"/>
<path d="M2905 4232 c1 -56 17 -63 125 -63 108 0 124 7 125 63 0 44 0 45 -23
37 -13 -5 -59 -9 -102 -9 -43 0 -89 4 -102 9 -23 8 -23 7 -23 -37z"/>
<path d="M2900 4066 c0 -33 5 -48 18 -54 51 -27 199 -23 228 5 8 8 14 32 14
54 0 38 -2 40 -22 32 -13 -4 -61 -8 -108 -8 -47 0 -95 4 -107 8 -22 8 -23 6
-23 -37z"/>
<path d="M2900 3911 c0 -58 23 -71 130 -71 107 0 130 13 130 71 l0 41 -32 -9
c-18 -4 -62 -8 -98 -8 -36 0 -80 4 -97 8 l-33 9 0 -41z"/>
<path d="M2353 3910 c-99 -35 -189 -111 -324 -272 -209 -250 -316 -448 -395
-738 -120 -434 -134 -860 -39 -1133 51 -147 94 -177 256 -177 253 0 481 64
667 187 97 64 147 123 202 237 145 299 202 697 133 921 l-19 60 -19 -29 c-16
-24 -20 -56 -26 -200 -15 -367 -124 -712 -274 -862 -110 -111 -311 -187 -565
-216 -58 -6 -122 -8 -143 -4 -121 23 -172 179 -171 521 0 202 13 313 60 525
75 336 187 567 399 825 154 187 283 285 377 285 81 0 139 -96 189 -315 12 -55
28 -113 35 -130 12 -30 60 -82 68 -74 8 8 -22 233 -43 323 -47 198 -127 286
-261 285 -30 0 -79 -8 -107 -19z"/>
<path d="M3530 3915 c-110 -50 -169 -186 -204 -470 -8 -66 -12 -122 -10 -125
3 -3 20 11 38 31 28 30 38 54 61 155 71 311 136 379 291 305 137 -65 387 -357
511 -598 87 -167 171 -449 209 -698 25 -165 26 -475 1 -597 -46 -229 -97 -261
-349 -223 -335 50 -521 158 -616 355 -83 175 -140 413 -165 701 -11 114 -20
165 -34 194 -11 21 -23 34 -26 28 -15 -24 -28 -159 -28 -278 1 -272 105 -641
229 -812 17 -22 60 -62 96 -88 186 -132 433 -205 700 -205 123 0 163 15 204
75 69 99 106 293 106 545 0 196 -10 300 -51 495 -84 407 -205 657 -462 957
-162 189 -266 258 -396 265 -49 2 -81 -1 -105 -12z"/>
<path d="M2900 3756 c0 -60 19 -70 130 -70 111 0 130 10 130 70 0 43 -1 45
-22 37 -13 -4 -61 -8 -108 -8 -47 0 -95 4 -107 8 -22 8 -23 6 -23 -37z"/>
<path d="M3135 3628 c-23 -13 -144 -16 -197 -5 l-38 8 0 -40 c0 -58 23 -71
131 -71 109 0 132 14 127 77 -3 38 -5 41 -23 31z"/>
<path d="M2900 3441 c0 -22 6 -46 14 -54 32 -31 216 -28 237 4 5 8 9 31 9 52
0 36 -1 37 -27 30 -16 -5 -62 -8 -103 -8 -41 0 -87 3 -102 8 -27 7 -28 6 -28
-32z"/>
<path d="M2120 3337 c0 -77 61 -183 140 -246 l49 -39 -36 -7 c-92 -17 -179
-82 -214 -159 -32 -70 -22 -75 37 -18 31 30 83 66 118 83 71 33 186 52 243 38
21 -5 68 -9 105 -9 l67 0 -48 -48 c-26 -26 -73 -86 -105 -135 -61 -93 -131
-160 -227 -219 -64 -39 -167 -78 -206 -78 -37 0 -26 -18 15 -25 48 -8 167 16
238 49 30 14 54 22 54 19 0 -11 -62 -116 -112 -192 -28 -40 -82 -106 -120
-147 -39 -41 -65 -74 -59 -74 6 0 38 13 70 30 108 54 236 193 296 321 l25 54
0 -65 c0 -75 30 -149 75 -190 l28 -25 -7 25 c-41 154 -27 312 44 464 66 145
162 245 301 316 54 27 107 55 118 62 18 11 25 10 48 -5 16 -9 69 -38 118 -64
168 -87 290 -242 341 -433 24 -88 25 -270 2 -322 -20 -45 -12 -48 25 -10 37
39 67 121 67 185 l0 52 34 -61 c47 -88 97 -154 167 -218 56 -52 161 -116 190
-116 7 0 -16 28 -50 63 -75 76 -162 196 -214 295 -35 65 -38 95 -7 57 29 -35
213 -82 275 -71 37 7 49 26 16 26 -32 0 -158 49 -219 85 -90 54 -153 116 -232
230 -40 58 -89 119 -107 134 l-34 28 139 7 c77 4 157 4 178 0 73 -13 162 -61
219 -118 63 -63 72 -51 25 32 -37 63 -105 116 -178 138 l-53 16 60 54 c67 62
107 132 117 209 7 56 8 56 -57 -29 -122 -163 -325 -248 -484 -201 -70 20 -188
78 -215 105 -15 15 -20 34 -20 76 l0 56 -32 -9 c-18 -4 -62 -8 -98 -8 -36 0
-80 4 -97 8 l-33 9 0 -61 0 -61 -46 -30 c-72 -45 -187 -90 -251 -96 -151 -16
-352 94 -448 246 -29 46 -35 49 -35 17z"/>
</g>
</svg>
